<?xml version="1.0" standalone="no"?>
<!DOCTYPE svg PUBLIC "-//W3C//DTD SVG 20010904//EN"
 "http://www.w3.org/TR/2001/REC-SVG-20010904/DTD/svg10.dtd">
<svg version="1.0" xmlns="http://www.w3.org/2000/svg"
 width="1408.000000pt" height="768.000000pt" viewBox="0 0 1408.000000 768.000000"
 preserveAspectRatio="xMidYMid meet">
<metadata>
Created by potrace 1.16, written by Peter Selinger 2001-2019
</metadata>
<g transform="translate(0.000000,768.000000) scale(0.100000,-0.100000)"
fill="#000000" stroke="none">
<path d="M6895 6864 c-624 -46 -1090 -209 -1569 -549 -522 -370 -949 -985
-1111 -1602 -88 -333 -118 -716 -85 -1058 52 -543 289 -1115 637 -1540 211
-259 479 -496 744 -660 116 -72 333 -185 419 -219 125 -48 235 -86 310 -107
41 -11 83 -23 93 -25 15 -5 17 3 17 80 l0 85 -100 32 c-454 141 -867 397
-1200 747 -450 470 -716 1075 -765 1740 l-7 92 126 0 c93 0 128 -3 130 -12 2
-7 9 -67 15 -133 34 -356 156 -722 350 -1048 89 -150 155 -237 291 -392 218
-247 558 -494 860 -625 91 -40 272 -110 282 -110 16 0 8 211 -9 274 -13 44
-17 99 -17 201 0 130 3 147 32 236 39 117 106 224 198 314 36 36 69 65 74 65
10 0 18 -360 9 -375 -4 -5 -16 -41 -28 -79 -20 -66 -21 -85 -21 -735 0 -625 2
-669 19 -706 10 -23 33 -53 52 -69 34 -29 78 -50 87 -42 2 3 6 333 7 733 2
435 7 740 13 758 57 179 213 277 383 240 114 -25 214 -139 226 -260 11 -107
-54 -227 -149 -276 -57 -29 -174 -49 -289 -49 l-99 0 0 -580 0 -580 28 0 c23
0 49 22 135 109 59 59 107 116 107 125 0 10 -25 43 -55 75 -30 32 -55 64 -55
72 0 8 25 39 55 69 30 30 55 60 55 66 0 7 -22 37 -50 67 l-50 55 0 180 0 181
48 5 c190 23 262 51 351 138 137 134 170 348 81 526 -30 59 -103 140 -152 170
-16 9 -28 19 -28 22 0 3 66 18 148 33 l147 29 37 -41 c43 -49 108 -180 134
-271 15 -50 19 -98 19 -205 -1 -131 -3 -146 -33 -232 -33 -96 -80 -198 -114
-246 l-20 -28 29 7 c79 18 150 41 268 87 457 178 852 475 1144 861 39 52 65
75 101 92 105 49 180 153 180 250 l0 36 -37 -7 c-78 -14 -153 -67 -200 -141
-10 -16 -12 -4 -10 65 l2 84 45 16 c124 44 185 116 197 236 l6 57 -34 -7 c-84
-18 -125 -45 -198 -135 l-21 -25 3 79 c1 58 6 81 17 87 8 4 36 18 63 30 91 43
147 120 162 222 7 47 7 47 -21 47 -49 0 -127 -44 -177 -100 l-47 -52 0 89 c0
74 -3 93 -18 106 -26 24 -47 21 -71 -9 -17 -22 -21 -41 -21 -103 l0 -76 -33
36 c-17 20 -48 47 -67 60 -19 12 -37 24 -39 25 -1 2 8 18 22 36 14 18 35 53
47 78 13 25 27 48 32 51 24 15 512 49 712 49 l138 0 -7 -67 c-3 -38 -20 -131
-36 -208 -87 -415 -286 -831 -563 -1175 -93 -116 -298 -320 -421 -420 -320
-260 -769 -473 -1145 -545 -47 -8 -95 -18 -107 -20 -14 -3 -42 -36 -77 -90
-31 -47 -56 -88 -56 -92 0 -19 358 49 515 98 323 101 618 252 890 455 655 489
1068 1199 1171 2009 23 177 23 485 0 676 -105 899 -601 1674 -1388 2167 -96
60 -349 185 -448 222 -235 88 -488 150 -707 175 -132 14 -420 25 -508 19z
m440 -219 c236 -36 543 -145 728 -258 l39 -24 -55 -27 c-219 -107 -393 -541
-333 -827 36 -169 161 -298 333 -345 l63 -17 0 -237 0 -237 -52 -7 c-29 -4
-63 -10 -76 -13 -23 -5 -23 -4 -20 73 l3 79 35 5 c34 5 35 6 38 54 l3 49 -40
-7 c-41 -6 -41 -6 -41 26 0 21 -9 41 -27 60 l-27 28 -23 -22 c-18 -17 -23 -32
-23 -69 l0 -47 -91 -21 c-50 -12 -94 -21 -98 -21 -4 0 -8 14 -9 31 -1 31 -35
79 -56 79 -20 0 -41 -44 -46 -95 -5 -49 -5 -49 -52 -63 l-48 -13 0 -51 c0 -39
3 -49 14 -45 8 3 31 9 50 13 l36 6 0 -74 0 -74 -72 -24 c-40 -14 -79 -26 -85
-28 -10 -3 -13 73 -13 352 l0 356 196 0 c108 0 194 3 192 8 -1 4 -18 28 -37
55 l-35 47 -163 0 c-160 0 -164 0 -173 23 -6 12 -47 132 -93 267 l-82 245 -95
53 c-52 29 -135 74 -185 100 l-90 47 363 3 363 2 60 -35 c33 -19 62 -35 64
-35 2 0 15 22 29 49 l25 50 -74 40 -74 41 -508 0 -507 0 -215 -116 c-119 -64
-217 -118 -219 -119 -2 -2 8 -26 22 -54 l26 -51 58 31 c31 17 123 67 204 111
l146 79 199 -107 c314 -170 304 -164 321 -209 7 -22 47 -135 87 -251 l73 -210
6 -412 7 -412 -83 -38 -82 -38 -45 23 c-92 46 -256 115 -345 144 -200 65 -504
131 -669 145 l-87 7 0 76 c1 124 57 221 129 221 47 0 126 22 178 48 84 43 149
153 162 273 9 84 10 84 -92 77 -127 -9 -233 -66 -287 -153 -11 -18 -29 -68
-40 -111 -11 -43 -27 -85 -35 -93 -13 -14 -15 2 -15 133 l0 148 45 51 c70 80
107 163 113 253 9 136 -37 244 -158 374 l-51 55 -65 -70 c-39 -42 -80 -99
-102 -143 -31 -64 -36 -86 -40 -160 -3 -62 1 -103 13 -144 17 -60 75 -156 119
-197 l26 -24 0 -184 c0 -101 -4 -183 -9 -183 -18 0 -30 27 -40 88 -32 202
-188 322 -416 322 l-65 0 0 -45 c0 -219 146 -383 359 -402 61 -5 69 -9 106
-47 22 -23 46 -60 53 -83 23 -78 61 -71 -413 -72 l-425 -1 0 39 c0 78 30 268
64 402 145 576 550 1067 1091 1325 223 106 445 169 685 193 118 12 345 5 475
-14z m-1550 -267 c-363 -258 -660 -663 -790 -1078 -122 -385 -136 -768 -44
-1163 12 -49 19 -91 16 -93 -3 -3 -159 -8 -347 -11 l-342 -6 6 84 c49 603 247
1106 616 1569 187 234 470 482 720 631 80 47 234 129 244 129 5 0 -31 -28 -79
-62z m2750 -115 c335 -219 631 -520 835 -848 245 -393 402 -864 422 -1265 l3
-65 -339 -3 -338 -2 6 26 c85 339 87 736 5 1058 -68 268 -194 529 -363 756
-93 125 -305 337 -431 429 -55 41 -104 79 -110 84 -22 22 217 -109 310 -170z
m-309 -21 c81 -44 139 -117 209 -264 147 -306 99 -584 -118 -692 -28 -14 -64
-26 -79 -26 -28 0 -28 0 -28 67 l0 66 100 103 c97 100 113 127 88 152 -24 24
-54 12 -113 -48 -33 -33 -63 -60 -67 -60 -4 0 -9 91 -10 202 l-3 203 -27 9
c-22 8 -32 6 -48 -9 -18 -16 -20 -31 -20 -134 l-1 -116 -52 58 c-53 59 -88 72
-115 45 -24 -24 -11 -48 78 -140 l89 -93 1 -152 c0 -152 0 -153 -22 -153 -63
1 -181 83 -224 156 -64 109 -72 296 -20 449 80 233 207 396 310 395 23 -1 55
-9 72 -18z m401 -349 c229 -296 371 -629 418 -983 8 -58 15 -129 15 -157 l0
-53 -105 0 c-121 0 -119 -2 -113 105 l3 60 65 -3 65 -4 -3 51 -4 51 -59 0 -59
0 0 32 c0 30 -43 108 -60 108 -19 0 -45 -46 -50 -88 -3 -29 -10 -47 -17 -46
-7 1 -56 2 -108 3 l-95 1 0 35 c0 24 -9 44 -29 67 l-28 32 -26 -29 c-19 -22
-26 -41 -27 -72 l0 -42 -60 -7 -60 -7 0 -44 0 -44 58 2 57 3 3 -81 3 -80 -68
-6 c-37 -4 -83 -7 -100 -7 l-33 0 0 228 0 229 55 12 c128 29 249 120 304 229
69 137 73 336 11 516 -30 88 -30 88 47 -11z m-2670 -52 c51 -77 68 -129 67
-201 -1 -70 -30 -145 -79 -205 -23 -28 -25 -28 -43 -11 -11 9 -35 45 -53 79
-31 56 -34 70 -33 142 0 52 6 94 17 119 17 39 77 125 87 126 3 0 20 -22 37
-49z m359 -593 c-10 -53 -47 -97 -103 -123 -28 -14 -63 -25 -77 -25 -24 0 -25
2 -15 28 25 66 83 123 145 142 52 15 57 13 50 -22z m-738 -37 c52 -27 91 -68
118 -126 29 -61 31 -88 7 -82 -10 3 -39 10 -65 17 -80 21 -152 98 -179 194
l-8 29 44 -6 c25 -4 62 -15 83 -26z m3160 -423 l3 -78 -111 0 -110 0 0 80 0
81 108 -3 107 -3 3 -77z m-880 -85 l3 -71 -91 -21 c-50 -12 -93 -21 -96 -21
-2 0 -4 33 -4 74 l0 74 83 20 c45 11 87 19 92 18 6 -1 11 -34 13 -73z m-2651
-218 c28 -236 84 -434 177 -630 170 -356 445 -647 790 -834 73 -40 266 -121
266 -113 0 4 2 93 4 197 6 277 34 363 166 496 156 158 367 208 570 134 162
-59 270 -166 332 -327 29 -76 35 -224 14 -308 -15 -60 -83 -220 -94 -220 -2 0
-44 13 -93 30 -50 16 -108 33 -130 36 -38 6 -65 24 -36 24 8 0 38 20 65 45 68
62 104 135 110 228 6 103 -22 174 -97 248 -75 74 -146 102 -256 103 -70 1 -89
-3 -147 -31 -89 -42 -151 -101 -191 -182 l-32 -66 -5 -230 -5 -230 -69 -47
c-39 -27 -80 -58 -93 -70 l-24 -23 -62 22 c-342 120 -661 344 -886 623 -113
141 -176 239 -253 395 -114 232 -189 504 -204 733 l-7 103 89 -3 89 -3 12
-100z m928 76 c301 -47 644 -146 813 -234 l43 -23 -91 -60 -92 -61 -76 33
c-83 36 -341 113 -462 138 -220 45 -551 65 -789 47 -80 -6 -146 -9 -148 -7 -7
7 -22 180 -16 189 3 6 135 7 342 4 277 -4 361 -9 476 -26z m2913 20 c8 -5 12
-23 10 -47 l-3 -39 -65 3 c-92 5 -455 -15 -596 -33 -486 -60 -865 -191 -1204
-415 -69 -46 -120 -84 -115 -86 6 -1 42 -7 80 -14 l71 -12 77 50 c188 123 455
234 707 296 287 69 521 96 846 96 l194 0 -4 -22 c-3 -13 -13 -61 -22 -108 -46
-237 -142 -476 -277 -690 -212 -336 -559 -634 -915 -784 -145 -61 -161 -64
-198 -34 -16 14 -55 43 -87 65 l-57 41 127 46 c346 126 622 313 830 564 52 62
98 108 118 116 73 31 125 98 139 179 6 31 4 37 -11 37 -39 0 -121 -49 -147
-86 l-26 -39 0 62 c0 59 1 61 30 71 89 31 160 116 160 190 0 26 -4 32 -20 32
-41 0 -119 -51 -153 -100 -17 -24 -17 -24 -17 36 l0 61 51 24 c63 29 113 86
128 144 6 24 11 49 11 54 0 36 -130 -25 -165 -77 l-25 -37 0 72 c0 69 -13 103
-40 103 -27 0 -40 -34 -40 -103 l0 -72 -25 37 c-29 43 -76 74 -128 83 l-38 7
7 -38 c15 -85 69 -149 154 -184 29 -12 30 -15 30 -74 l0 -61 -25 37 c-23 33
-110 88 -142 88 -14 0 -17 -29 -7 -78 9 -45 67 -107 124 -133 l50 -23 0 -60 0
-61 -22 32 c-37 51 -145 110 -165 89 -3 -2 0 -28 7 -57 14 -58 51 -106 104
-134 20 -11 36 -23 36 -27 0 -17 -254 -260 -332 -318 -45 -33 -85 -60 -90 -60
-4 0 -8 25 -8 55 0 54 0 54 43 73 85 38 146 114 147 185 0 21 -5 27 -20 27
-44 0 -112 -46 -155 -105 -13 -18 -14 -15 -15 42 l0 62 50 22 c80 35 140 116
140 193 0 43 -130 -13 -160 -69 -21 -39 -30 -30 -30 30 l0 54 54 26 c64 30
111 80 125 132 16 55 14 73 -7 73 -31 0 -122 -51 -144 -81 -39 -53 -40 -45 -6
98 13 59 2 112 -33 157 -20 26 -22 26 -40 10 -48 -43 -59 -132 -29 -236 8 -26
11 -50 8 -54 -4 -3 -21 10 -38 29 -31 36 -105 77 -139 77 -17 0 -18 -4 -10
-41 21 -91 60 -137 152 -177 22 -10 27 -18 27 -49 0 -21 3 -49 7 -63 5 -21 -1
-17 -38 22 -44 46 -100 78 -137 78 -18 0 -19 -4 -11 -45 16 -87 43 -120 129
-159 l55 -25 3 -56 c2 -30 1 -55 -1 -55 -2 0 -24 19 -48 43 -41 40 -121 78
-135 64 -12 -12 7 -96 29 -129 14 -20 48 -46 90 -68 l67 -35 0 -78 0 -78 -112
-54 c-62 -29 -123 -57 -136 -60 -20 -6 -21 -4 -12 19 5 15 15 68 21 118 47
389 -261 728 -662 728 -145 0 -288 -43 -386 -116 -17 -13 -35 -24 -38 -24 -10
0 31 56 107 147 302 363 936 629 1623 682 146 11 726 13 743 2z m-3128 -291
c230 -21 477 -74 675 -145 55 -20 103 -39 107 -43 4 -4 -25 -40 -64 -80 l-71
-73 -101 36 c-113 41 -249 74 -406 101 -83 14 -163 18 -384 19 l-280 0 -22 85
c-12 47 -20 87 -17 90 5 5 206 15 358 18 50 1 142 -3 205 -8z m-264 -303 c2
-7 3 -96 2 -197 l-3 -185 -55 85 c-58 91 -150 265 -150 286 0 22 197 32 206
11z m302 -3 l32 -5 0 -350 0 -350 -21 12 c-12 6 -61 50 -110 97 l-89 87 0 256
c0 141 3 258 6 262 6 6 121 0 182 -9z m265 -43 c43 -10 83 -23 87 -27 10 -10
19 -846 10 -842 -42 21 -190 103 -205 114 -23 17 -22 -8 -17 487 l2 287 23 0
c12 0 57 -9 100 -19z m3577 -69 l0 -59 -252 -7 c-139 -4 -315 -12 -390 -19
-95 -8 -138 -9 -138 -2 0 6 10 38 23 70 l23 60 285 5 c156 3 321 6 367 8 l82
2 0 -58z m-4760 -14 c7 -18 31 -72 53 -121 22 -48 38 -89 36 -91 -2 -2 -97 -6
-210 -10 l-205 -7 -12 103 c-19 165 -33 147 121 151 72 1 148 4 168 5 33 2 38
-1 49 -30z m222 -420 c19 -29 60 -84 91 -123 31 -38 57 -72 57 -75 0 -3 -135
-6 -300 -7 -274 -2 -299 -1 -304 15 -31 104 -56 198 -56 213 0 20 29 23 331
27 l146 2 35 -52z m1846 13 c45 -23 89 -71 109 -118 42 -102 -24 -228 -142
-273 -16 -7 -81 -14 -142 -17 l-113 -6 0 -53 c0 -49 -2 -53 -31 -63 -18 -6
-36 -11 -41 -11 -6 0 -8 70 -6 178 3 158 6 182 26 227 65 141 213 201 340 136z
m1737 -230 c24 -15 65 -36 90 -45 l46 -18 -4 -70 c-5 -74 -11 -92 -22 -59 -10
32 -91 98 -142 115 -52 18 -93 21 -93 6 0 -23 24 -118 35 -141 30 -57 123
-125 198 -143 28 -7 28 -7 26 -87 l-2 -80 -48 55 c-51 56 -107 89 -171 100
-37 7 -38 6 -38 -23 0 -45 38 -138 72 -177 17 -19 52 -47 77 -61 25 -15 48
-28 50 -29 9 -7 -129 -161 -245 -274 -113 -109 -298 -259 -309 -249 -2 2 -6
36 -10 74 l-7 70 58 25 c110 45 194 156 194 257 0 31 -1 32 -32 27 -79 -15
-140 -56 -195 -129 l-22 -30 2 84 2 83 55 21 c76 28 153 106 174 177 9 30 16
67 16 83 0 28 -2 29 -34 24 -72 -12 -140 -58 -194 -132 l-21 -30 -1 82 0 81
63 29 c34 17 76 41 92 56 43 36 82 112 91 176 7 52 6 54 -15 48 -11 -3 -21 -3
-21 0 0 3 27 33 60 68 34 34 75 81 91 104 l31 41 29 -40 c17 -23 50 -54 74
-69z m-3670 -321 c2 -102 1 -218 -3 -259 l-7 -75 -41 55 c-22 30 -62 90 -89
134 -48 79 -165 303 -165 317 0 7 150 15 253 14 l49 -1 3 -185z m314 175 c74
-5 89 -9 123 -36 l38 -31 0 -459 c0 -252 -4 -459 -8 -459 -15 0 -194 154 -259
223 l-63 65 0 349 c0 193 3 353 7 356 3 4 22 5 42 2 20 -2 74 -7 120 -10z
m416 -257 c39 -25 93 -57 120 -71 95 -48 85 4 91 -495 2 -243 2 -442 -2 -442
-14 0 -214 104 -264 138 l-55 37 -2 453 -2 454 22 -15 c12 -8 54 -34 92 -59z
m1231 -29 c42 -6 108 -22 145 -35 69 -25 179 -83 179 -94 0 -4 -32 -11 -71
-17 -39 -6 -72 -13 -73 -15 -2 -2 -19 -29 -39 -60 l-36 -56 -43 13 c-24 7 -71
16 -106 20 -57 6 -68 12 -108 50 l-44 43 0 76 0 75 38 4 c71 7 81 7 158 -4z
m-316 -166 c0 -71 -4 -133 -8 -139 -9 -13 -54 -44 -64 -44 -5 0 -8 63 -8 140
l0 139 28 15 c51 28 52 26 52 -111z m1199 51 c19 -53 86 -114 164 -151 l67
-33 0 -77 c0 -42 -4 -73 -8 -67 -5 5 -23 28 -40 51 -35 44 -100 82 -164 93
l-39 7 6 -46 c17 -127 77 -201 198 -246 l47 -18 0 -112 0 -113 -47 -30 c-58
-37 -253 -132 -272 -132 -9 0 -11 7 -7 23 3 12 11 64 18 115 21 172 -19 383
-104 542 -22 41 -49 85 -61 97 -11 13 -18 26 -14 29 8 8 219 101 232 103 6 0
17 -15 24 -35z"/>
<path d="M6493 5773 l-83 -4 0 -149 0 -150 55 0 c52 0 55 -1 55 -25 l0 -25
120 0 120 0 0 180 0 180 -92 -2 c-51 -1 -130 -4 -175 -5z m171 -178 l1 -80
-75 0 -75 0 -3 83 -3 83 77 -3 77 -3 1 -80z"/>
<path d="M6774 5212 l-271 -2 -16 -42 c-9 -23 -15 -44 -12 -47 3 -2 97 -5 210
-5 113 -1 205 -2 205 -4 0 -2 -156 -194 -313 -385 -22 -26 -38 -50 -35 -52 2
-2 25 -10 52 -17 44 -12 49 -11 64 9 9 11 80 99 157 194 l140 173 3 -250 2
-250 45 -22 c25 -12 48 -22 50 -22 8 0 6 719 -2 722 -5 2 -130 2 -279 0z"/>
</g>
</svg>
